<?xml version="1.0" encoding="UTF-8" standalone="no"?>
<svg width="92px" height="92px" viewBox="0 0 92 92" version="1.1" xmlns="http://www.w3.org/2000/svg" xmlns:xlink="http://www.w3.org/1999/xlink">
    <!-- Generator: Sketch 41.2 (35397) - http://www.bohemiancoding.com/sketch -->
    <title>Group 8</title>
    <desc>Created with Sketch.</desc>
    <defs></defs>
    <g id="Page-1" stroke="none" stroke-width="1" fill="none" fill-rule="evenodd">
        <g id="Page-2-version-5" transform="translate(-457.000000, -3799.000000)">
            <g id="Group-8" transform="translate(457.000000, 3799.000000)">
                <circle id="Oval-2-Copy-3" fill="#947ED8" cx="46" cy="46" r="46"></circle>
                <g id="1482259469_trekking" transform="translate(32.000000, 27.000000)">
                    <g id="Layer_1">
                        <circle id="Oval" fill="#FFFFFF" cx="17" cy="4" r="4"></circle>
                        <path d="M12.8,8.8 L18,12.8 L15.4,22 L18.8,26.6 L17.2,30 L10.8,24.8 C9.6,23.8 9,22.2 9.4,20.6 L12.8,8.8 Z" id="Shape" fill="#FFFFFF"></path>
                        <path d="M28,10 L28,40" id="Shape" stroke="#FFFFFF"></path>
                        <path d="M13,22 L17.8,27.6 C18.6,28.6 19,29.8 19,31 L19,40" id="Shape" stroke="#FFFFFF" stroke-width="2"></path>
                        <path d="M12.2,10.6 L14.8,11.4 C16.4,11.8 17.8,12.6 19,13.8 L20.6,15.4 C21.4,16.2 22.4,16.4 23.4,16.2 C25.4,15.8 28.4,15.2 28.4,15.2" id="Shape" stroke="#FFFFFF" stroke-width="2"></path>
                        <polygon id="Shape" fill="#FFFFFF" points="9.4 40 13 30 9.8 27.2 5.2 40"></polygon>
                        <path d="M3.4,21.4 L3.4,21.4 C1.6,20.8 0.4,18.8 1,17 L2.2,13 C3.4,9.4 7.4,7.4 11,8.4 L11,8.4 L7.8,19 C7.2,21 5.4,22 3.4,21.4 Z" id="Shape" fill="#FFFFFF"></path>
                    </g>
                </g>
            </g>
        </g>
    </g>
</svg>