<?xml version="1.0" encoding="UTF-8" standalone="no"?>
<svg width="92px" height="92px" viewBox="0 0 92 92" version="1.1" xmlns="http://www.w3.org/2000/svg" xmlns:xlink="http://www.w3.org/1999/xlink">
    <!-- Generator: Sketch 41.2 (35397) - http://www.bohemiancoding.com/sketch -->
    <title>Group 10</title>
    <desc>Created with Sketch.</desc>
    <defs></defs>
    <g id="Page-1" stroke="none" stroke-width="1" fill="none" fill-rule="evenodd">
        <g id="Page-2-version-5" transform="translate(-1051.000000, -3508.000000)">
            <g id="Group-10" transform="translate(1051.000000, 3508.000000)">
                <g id="Group-6" fill="#DF6060">
                    <g id="Group-9">
                        <circle id="Oval-2-Copy-2" cx="46" cy="46" r="46"></circle>
                    </g>
                </g>
                <g id="587694" transform="translate(25.000000, 38.000000)" fill="#FFFFFF">
                    <path d="M39.3176955,12.7456522 C39.0716049,12.7456522 38.8349794,12.7644928 38.5983539,12.7833333 L37.9358025,10.6731884 C38.6930041,10.4188406 41.0119342,10.4847826 42.6304527,11.0876812 C43.2930041,11.3326087 44.0312757,10.9463768 44.2584362,10.2775362 C44.4855967,9.60869565 44.1164609,8.88333333 43.4444444,8.65724638 C41.3148148,7.95072464 39.2514403,7.81884058 37.1596708,8.19565217 L34.8691358,0.923188406 C34.6798354,0.329710145 34.0835391,-0.0471014493 33.4683128,0.0376811594 L30.827572,0.395652174 C30.1176955,0.489855072 29.6255144,1.13985507 29.7201646,1.83695652 C29.8148148,2.53405797 30.4584362,3.03333333 31.1683128,2.93913043 L32.7300412,2.73188406 L34.4053498,8.03550725 C32.9098765,6.63188406 30.382716,4.71956522 27.4864198,4.51231884 C25.6407407,4.38043478 23.937037,4.93623188 22.4037037,6.17028986 C15.9864198,4.30507246 8.89711934,3.49492754 1.29670782,3.77753623 C0.804526749,3.79637681 0.359670782,4.09782609 0.16090535,4.55 C-0.0378600823,5.00217391 0.0473251029,5.52971014 0.369135802,5.89710145 L4.53374486,10.7014493 C4.8744856,11.0971014 5.43292181,11.2478261 5.9345679,11.0782609 C8.71728395,10.107971 11.8028807,10.6072464 14.1218107,12.3028986 L12.5506173,13.8666667 C11.490535,13.1601449 10.2222222,12.7456522 8.85925926,12.7456522 C5.1962963,12.7456522 2.22427984,15.7130435 2.22427984,19.3492754 C2.22427984,22.9949275 5.20576132,25.9528986 8.85925926,25.9528986 C12.5127572,25.9528986 15.4942387,22.9855072 15.4942387,19.3492754 C15.4942387,17.9927536 15.0777778,16.7304348 14.3679012,15.6753623 L15.9390947,14.1115942 C17.0748971,15.6282609 17.6901235,17.4369565 17.6806584,19.3398551 C17.6806584,19.6789855 17.5481481,20.6304348 18.9773663,20.6304348 L29.1995885,20.6304348 C29.909465,20.6304348 30.4868313,20.0557971 30.4868313,19.3492754 C30.4868313,15.8731884 32.5218107,12.8775362 35.4843621,11.4456522 L36.1469136,13.5463768 C34.0835391,14.6673913 32.682716,16.8434783 32.682716,19.3492754 C32.682716,22.9949275 35.6641975,25.9528986 39.3176955,25.9528986 C42.9711934,25.9528986 45.9526749,22.9855072 45.9526749,19.3492754 C45.9526749,15.7130435 42.9806584,12.7456522 39.3176955,12.7456522 Z M12.9102881,19.3586957 C12.9102881,21.5913043 11.0930041,23.4 8.84979424,23.4 C6.60658436,23.4 4.78930041,21.5913043 4.78930041,19.3586957 C4.78930041,17.126087 6.60658436,15.3173913 8.84979424,15.3173913 C9.50288066,15.3173913 10.108642,15.4775362 10.6576132,15.7413043 L7.94115226,18.4449275 C7.43950617,18.9442029 7.43950617,19.7543478 7.94115226,20.2630435 C8.39547325,20.7152174 9.32304527,20.7057971 9.76790123,20.2630435 L12.4843621,17.5594203 C12.7493827,18.0963768 12.9102881,18.7086957 12.9102881,19.3586957 Z M27.9786008,18.0775362 L20.1888889,18.0775362 C19.9144033,15.534058 18.7786008,13.1789855 16.9234568,11.3326087 C14.0650206,8.48768116 9.83415638,7.37608696 5.9345679,8.40289855 L4.11728395,6.30217391 C4.14567901,6.30217391 12.3802469,5.58623188 22.3374486,8.84565217 C22.7823045,8.98695652 23.2650206,8.86449275 23.5962963,8.55362319 C24.7415638,7.47971014 25.9530864,6.99927536 27.2876543,7.09347826 C29.5119342,7.2442029 31.6037037,8.92101449 32.7868313,10.0702899 C30.1650206,11.8695652 28.3477366,14.7615942 27.9786008,18.0775362 Z M39.3176955,23.4 C37.0744856,23.4 35.2572016,21.5913043 35.2572016,19.3586957 C35.2572016,18.0115942 35.9197531,16.8246377 36.9419753,16.0898551 L38.0967078,19.7449275 C38.3427984,20.4608696 39.0432099,20.7623188 39.7152263,20.5833333 C40.4061728,20.4043478 40.7753086,19.6507246 40.5576132,18.9724638 L39.4028807,15.3173913 C41.6082305,15.3550725 43.3876543,17.1543478 43.3876543,19.3586957 C43.3781893,21.5818841 41.5514403,23.4 39.3176955,23.4 Z" id="Shape"></path>
                </g>
            </g>
        </g>
    </g>
</svg>