<?xml version="1.0" encoding="UTF-8" standalone="no"?>
<svg width="92px" height="92px" viewBox="0 0 92 92" version="1.1" xmlns="http://www.w3.org/2000/svg" xmlns:xlink="http://www.w3.org/1999/xlink">
    <!-- Generator: Sketch 41.2 (35397) - http://www.bohemiancoding.com/sketch -->
    <title>Group 7</title>
    <desc>Created with Sketch.</desc>
    <defs></defs>
    <g id="Page-1" stroke="none" stroke-width="1" fill="none" fill-rule="evenodd">
        <g id="Page-2-version-5" transform="translate(-753.000000, -3799.000000)">
            <g id="Group-7" transform="translate(753.000000, 3799.000000)">
                <circle id="Oval-2-Copy-4" fill="#7ACB88" cx="46" cy="46" r="46"></circle>
                <g id="1482259341_17.Brush" transform="translate(24.000000, 27.000000)" fill="#FFFFFF">
                    <g id="Layer_1">
                        <path d="M40.637625,4.95646667 C35.44275,12.6065333 19.795125,28.08 19.795125,28.08 L19.789,28.0739333 C19.75225,28.1138 19.719,28.1554 19.679625,28.1944 C18.696125,29.1668 17.36175,29.5602667 16.079875,29.4103333 C16.492,31.1194 16.057125,32.9957333 14.742,34.3312667 C14.742,34.3312667 8.162,42.3904 0.86975,37.3126 C0.86975,37.3126 4.802,36.2214667 5.144125,33.0789333 C5.144125,33.0789333 4.619125,29.9121333 7.50575,26.9776 C8.799875,25.662 10.61025,25.2104667 12.270125,25.5944 C12.137125,24.3429333 12.53525,23.0464 13.50475,22.087 C13.54325,22.048 13.586125,22.0150667 13.626375,21.9778 L13.62025,21.9717333 C13.62025,21.9717333 29.25825,6.4896 36.99325,1.35113333 C38.017,0.625733333 39.44675,0.710666667 40.3655,1.6198 C41.286875,2.53066667 41.37175,3.9442 40.637625,4.95646667 Z M13.524,28.1545333 C12.87475,27.5114667 12.033,27.1448667 11.132625,27.1448667 C10.22875,27.1448667 9.37475,27.5054 8.731625,28.1597333 C6.5135,30.4148 6.846,32.9992 6.85475,33.0798 C6.664,34.8304667 5.662125,36.322 4.617375,37.219 C4.986625,37.2857333 5.36025,37.3195333 5.74175,37.3195333 C9.898,37.3195333 13.39975,33.2808667 13.432125,33.2427333 C13.433,33.2427333 15.82875,30.4382 13.524,28.1545333 Z M13.99475,25.1402667 C13.99475,25.8301333 14.247625,26.4801333 14.742,26.9680667 C15.236375,27.4568667 15.9215,27.7402667 16.61975,27.7402667 C17.318,27.7402667 17.948875,27.4577333 18.4275,26.9828 L19.78725,25.6221333 C19.856375,25.5519333 19.950875,25.4566 20.027,25.3794667 L16.354625,21.7420667 C16.274125,21.8192 16.17525,21.9136667 16.1035,21.9838667 L14.741125,23.3159333 C14.247625,23.803 13.99475,24.4504 13.99475,25.1402667 Z M39.13,2.84786667 C38.912125,2.63206667 38.6575,2.6 38.523625,2.6 C38.338125,2.6 38.161375,2.65546667 37.968,2.7924 C32.52725,6.4064 22.218875,16.1104667 17.579625,20.5616667 L21.21875,24.1661333 C25.71625,19.5762667 35.53725,9.36086667 39.21575,3.94506667 C39.46425,3.6036 39.428375,3.14166667 39.13,2.84786667 Z" id="Shape"></path>
                    </g>
                </g>
            </g>
        </g>
    </g>
</svg>