<?xml version="1.0" encoding="UTF-8" standalone="no"?>
<svg width="92px" height="92px" viewBox="0 0 92 92" version="1.1" xmlns="http://www.w3.org/2000/svg" xmlns:xlink="http://www.w3.org/1999/xlink">
    <!-- Generator: Sketch 41.2 (35397) - http://www.bohemiancoding.com/sketch -->
    <title>Group 4</title>
    <desc>Created with Sketch.</desc>
    <defs></defs>
    <g id="Page-1" stroke="none" stroke-width="1" fill="none" fill-rule="evenodd">
        <g id="Page-2-version-5" transform="translate(-457.000000, -3508.000000)">
            <g id="Group-4" transform="translate(457.000000, 3508.000000)">
                <circle id="Oval-2" fill="#F57D15" cx="46" cy="46" r="46"></circle>
                <g id="1482258769_food-drink-04" transform="translate(19.000000, 23.000000)" fill="#FFFFFF">
                    <g id="Layer_1">
                        <g id="Group">
                            <path d="M8.5,44.8636364 C8.5,46.1454545 9.35,47 10.625,47 L48.875,47 C50.15,47 51,46.1454545 51,44.8636364 L51,42.7272727 L8.5,42.7272727 L8.5,44.8636364 Z" id="Shape"></path>
                            <path d="M8.5,12.8181818 C3.825,12.8181818 0,16.6636364 0,21.3636364 C0,26.0636364 3.825,29.9090909 8.5,29.9090909 L11.2625,29.9090909 C14.875,36.3181818 21.8875,40.5909091 29.75,40.5909091 C41.4375,40.5909091 51,30.9772727 51,19.2272727 L51,12.8181818 L8.5,12.8181818 Z M8.5,25.6363636 C6.1625,25.6363636 4.25,23.7136364 4.25,21.3636364 C4.25,19.0136364 6.1625,17.0909091 8.5,17.0909091 L8.5,19.2272727 C8.5,21.3636364 8.925,23.7136364 9.5625,25.6363636 L8.5,25.6363636 Z M46.75,19.2272727 C46.75,28.6272727 39.1,36.3181818 29.75,36.3181818 C20.4,36.3181818 12.75,28.6272727 12.75,19.2272727 L12.75,17.0909091 L46.75,17.0909091 L46.75,19.2272727 Z" id="Shape"></path>
                            <path d="M24.0125,1.28181818 C24.0125,1.28181818 24.4375,0.640909091 23.8,0.213636364 C23.375,-0.213636364 22.525,0.213636364 22.525,0.213636364 C20.825,1.92272727 21.0375,4.48636364 22.7375,6.19545455 C23.8,7.26363636 23.8,8.33181818 22.95,9.18636364 C22.95,9.18636364 22.525,10.0409091 23.1625,10.4681818 C23.8,10.8954545 24.65,10.4681818 24.65,10.4681818 C26.35,8.75909091 26.35,6.19545455 24.225,4.48636364 C22.95,3.84545455 22.95,2.35 24.0125,1.28181818 Z" id="Shape"></path>
                            <path d="M30.3875,1.28181818 C30.3875,1.28181818 30.8125,0.640909091 30.175,0.213636364 C29.75,-0.213636364 28.9,0.213636364 28.9,0.213636364 C27.2,1.92272727 27.4125,4.48636364 29.1125,6.19545455 C30.175,7.26363636 30.175,8.33181818 29.325,9.18636364 C29.325,9.18636364 28.9,10.0409091 29.5375,10.4681818 C30.175,10.8954545 31.025,10.4681818 31.025,10.4681818 C32.725,8.75909091 32.725,6.19545455 30.6,4.48636364 C29.325,3.84545455 29.325,2.35 30.3875,1.28181818 Z" id="Shape"></path>
                            <path d="M36.7625,1.28181818 C36.7625,1.28181818 37.1875,0.640909091 36.55,0.213636364 C36.125,-0.213636364 35.275,0.213636364 35.275,0.213636364 C33.575,1.92272727 33.7875,4.48636364 35.4875,6.19545455 C36.55,7.26363636 36.55,8.33181818 35.7,9.18636364 C35.7,9.18636364 35.275,10.0409091 35.9125,10.4681818 C36.55,10.8954545 37.4,10.4681818 37.4,10.4681818 C39.1,8.75909091 39.1,6.19545455 36.975,4.48636364 C35.7,3.84545455 35.7,2.35 36.7625,1.28181818 Z" id="Shape"></path>
                        </g>
                    </g>
                </g>
            </g>
        </g>
    </g>
</svg>