<?xml version="1.0" encoding="UTF-8" standalone="no"?>
<svg width="92px" height="92px" viewBox="0 0 92 92" version="1.1" xmlns="http://www.w3.org/2000/svg" xmlns:xlink="http://www.w3.org/1999/xlink">
    <!-- Generator: Sketch 41.2 (35397) - http://www.bohemiancoding.com/sketch -->
    <title>Group 5</title>
    <desc>Created with Sketch.</desc>
    <defs></defs>
    <g id="Page-1" stroke="none" stroke-width="1" fill="none" fill-rule="evenodd">
        <g id="Page-2-version-5" transform="translate(-753.000000, -3508.000000)">
            <g id="Group-5" transform="translate(753.000000, 3508.000000)">
                <circle id="Oval-2-Copy" fill="#2B9FE8" cx="46" cy="46" r="46"></circle>
                <g id="1482259010_apple" transform="translate(31.000000, 28.000000)" fill="#FFFFFF">
                    <g id="Layer_1">
                        <g id="Group">
                            <path d="M9.83211679,9.04118812 C10.5766423,9.02653465 11.8321168,9.50277228 13.0656934,10.0083168 C15.0875912,10.8215842 15.4014599,10.8582178 17.4233577,10.0229703 C18.620438,9.53207921 19.8394161,9.12910891 21.1313869,8.99722772 C23.1167883,8.79207921 24.9416058,9.2609901 26.6423358,10.2867327 C27.4817518,10.799604 28.2262774,11.4150495 28.8248175,12.1990099 C29.0291971,12.4627723 29.0364964,12.6093069 28.729927,12.8144554 C25.3357664,15.0564356 24.1167883,19.5330693 25.8832117,23.240396 C26.7080292,24.969505 28.0145985,26.2223762 29.7226277,27.050297 C29.9927007,27.1821782 30.0364964,27.2994059 29.9343066,27.5778218 C29.0729927,29.9809901 27.8540146,32.1716832 26.2408759,34.1425743 C25.8540146,34.6114851 25.459854,35.0730693 25.0218978,35.5053465 C23.6934307,36.8314851 22.1459854,37.2344554 20.3357664,36.7435644 C19.5474453,36.5310891 18.810219,36.1794059 18.0437956,35.9156436 C15.9854015,35.1976238 14.0218978,35.5786139 12.0875912,36.4065347 C11.3868613,36.7069307 10.6642336,36.8974257 9.91240876,36.9780198 C8.82481752,37.0952475 7.87591241,36.7215842 7.05839416,36.0182178 C5.43065693,34.6261386 4.17518248,32.9263366 3.10948905,31.0726733 C1.95620438,29.0724752 1.15328467,26.9330693 0.620437956,24.6910891 C0.116788321,22.5736634 -0.0948905109,20.4342574 0.145985401,18.2655446 C0.364963504,16.2653465 0.97080292,14.389703 2.16788321,12.7631683 C3.90510949,10.4039604 6.23357664,9.10712871 9.83211679,9.04118812 Z" id="Shape"></path>
                            <path d="M14.9562044,7.79564356 C15.0583942,5.12871287 16.2992701,3.09188119 18.4087591,1.54594059 C19.4963504,0.74 20.729927,0.285742574 22.0510949,0.043960396 C22.3357664,-0.00732673267 22.4087591,0.0732673267 22.4087591,0.351683168 C22.4306569,3.39960396 21.1751825,5.80277228 18.7518248,7.57584158 C17.7737226,8.29386139 16.6131387,8.60158416 15.3868613,8.58693069 C15.0583942,8.58693069 14.9124088,8.4990099 14.9562044,8.15465347 C14.9708029,8.03742574 14.9562044,7.91287129 14.9562044,7.79564356 Z" id="Shape"></path>
                        </g>
                    </g>
                </g>
            </g>
        </g>
    </g>
</svg>